<?xml version="1.0" encoding="UTF-8" standalone="no"?>
<!-- Created with Inkscape (http://www.inkscape.org/) -->

<svg
   xmlns:dc="http://purl.org/dc/elements/1.1/"
   xmlns:cc="http://creativecommons.org/ns#"
   xmlns:rdf="http://www.w3.org/1999/02/22-rdf-syntax-ns#"
   xmlns:svg="http://www.w3.org/2000/svg"
   xmlns="http://www.w3.org/2000/svg"
   xmlns:xlink="http://www.w3.org/1999/xlink"
   xmlns:sodipodi="http://sodipodi.sourceforge.net/DTD/sodipodi-0.dtd"
   xmlns:inkscape="http://www.inkscape.org/namespaces/inkscape"
   width="800"
   height="800"
   viewBox="0 0 211.66666 211.66667"
   version="1.1"
   id="svg985"
   inkscape:version="0.92.4 (5da689c313, 2019-01-14)"
   sodipodi:docname="logo.svg"
   inkscape:export-filename="E:\Projects\Ascentis\CX\Logo\logopack\logo-black-960.png"
   inkscape:export-xdpi="90"
   inkscape:export-ydpi="90">
  <defs
     id="defs979">
    <linearGradient
       id="linearGradient1111"
       inkscape:collect="always">
      <stop
         id="stop1106"
         offset="0"
         style="stop-color:#b70200;stop-opacity:1" />
      <stop
         id="stop1108"
         offset="1"
         style="stop-color:#e05516;stop-opacity:1" />
    </linearGradient>
    <filter
       style="color-interpolation-filters:sRGB"
       inkscape:label="Invert"
       id="filter1034">
      <feColorMatrix
         type="hueRotate"
         values="180"
         result="color1"
         id="feColorMatrix1030" />
      <feColorMatrix
         values="-1 0 0 0 1 0 -1 0 0 1 0 0 -1 0 1 -0.21 -0.72 -0.07 1.56 0 "
         result="color2"
         id="feColorMatrix1032" />
    </filter>
    <filter
       y="-0.25"
       height="1.5"
       inkscape:menu-tooltip="Darkens the edge with an inner blur and adds a flexible glow"
       inkscape:menu="Shadows and Glows"
       inkscape:label="Dark and Glow"
       style="color-interpolation-filters:sRGB"
       id="filter1221">
      <feGaussianBlur
         stdDeviation="5"
         result="result6"
         id="feGaussianBlur1211" />
      <feComposite
         result="result8"
         in="SourceGraphic"
         operator="atop"
         in2="result6"
         id="feComposite1213" />
      <feComposite
         result="result9"
         operator="over"
         in2="SourceAlpha"
         in="result8"
         id="feComposite1215" />
      <feColorMatrix
         values="1 0 0 0 0 0 1 0 0 0 0 0 1 0 0 0 0 0 1 0 "
         result="result10"
         id="feColorMatrix1217" />
      <feBlend
         in="result10"
         mode="normal"
         in2="result6"
         id="feBlend1219" />
    </filter>
    <filter
       y="-0.25"
       height="1.5"
       inkscape:menu-tooltip="Darkens the edge with an inner blur and adds a flexible glow"
       inkscape:menu="Shadows and Glows"
       inkscape:label="Dark and Glow"
       style="color-interpolation-filters:sRGB"
       id="filter1402">
      <feGaussianBlur
         stdDeviation="5"
         result="result6"
         id="feGaussianBlur1392" />
      <feComposite
         result="result8"
         in="SourceGraphic"
         operator="atop"
         in2="result6"
         id="feComposite1394" />
      <feComposite
         result="result9"
         operator="over"
         in2="SourceAlpha"
         in="result8"
         id="feComposite1396" />
      <feColorMatrix
         values="1 0 0 0 0 0 1 0 0 0 0 0 1 0 0 0 0 0 1 0 "
         result="result10"
         id="feColorMatrix1398" />
      <feBlend
         in="result10"
         mode="normal"
         in2="result6"
         id="feBlend1400" />
    </filter>
    <linearGradient
       inkscape:collect="always"
       xlink:href="#linearGradient1111"
       id="linearGradient1409"
       gradientUnits="userSpaceOnUse"
       x1="162.43225"
       y1="233.21292"
       x2="162.43225"
       y2="101.57887" />
  </defs>
  <sodipodi:namedview
     id="base"
     pagecolor="#ffffff"
     bordercolor="#666666"
     borderopacity="1.0"
     inkscape:pageopacity="0.0"
     inkscape:pageshadow="2"
     inkscape:zoom="0.0875"
     inkscape:cx="2445.7079"
     inkscape:cy="1674.2743"
     inkscape:document-units="mm"
     inkscape:current-layer="g1014"
     showgrid="false"
     inkscape:window-width="958"
     inkscape:window-height="1008"
     inkscape:window-x="-7"
     inkscape:window-y="0"
     inkscape:window-maximized="0"
     units="px" />
  <metadata
     id="metadata982">
    <rdf:RDF>
      <cc:Work
         rdf:about="">
        <dc:format>image/svg+xml</dc:format>
        <dc:type
           rdf:resource="http://purl.org/dc/dcmitype/StillImage" />
        <dc:title></dc:title>
      </cc:Work>
    </rdf:RDF>
  </metadata>
  <g
     inkscape:groupmode="layer"
     id="g1121"
     inkscape:label="export frame sq"
     style="display:none"
     transform="translate(0,-85.333317)">
    <rect
       style="display:inline;opacity:1;vector-effect:none;fill:#ffffff;fill-opacity:1;stroke:none;stroke-width:0.56326669;stroke-linecap:round;stroke-linejoin:round;stroke-miterlimit:4;stroke-dasharray:none;stroke-dashoffset:0;stroke-opacity:1;paint-order:normal"
       id="rect1115"
       width="1232.9584"
       height="227.54167"
       x="-1232.9584"
       y="69.458336"
       transform="scale(-1,1)"
       inkscape:export-xdpi="90"
       inkscape:export-ydpi="90" />
    <rect
       inkscape:export-ydpi="90"
       inkscape:export-xdpi="90"
       transform="scale(-1,1)"
       y="21.83333"
       x="-275.16666"
       height="296.33334"
       width="296.33334"
       id="rect1117"
       style="display:inline;opacity:1;vector-effect:none;fill:#b702ff;fill-opacity:0;stroke:none;stroke-width:0.31513008;stroke-linecap:round;stroke-linejoin:round;stroke-miterlimit:4;stroke-dasharray:none;stroke-dashoffset:0;stroke-opacity:1;paint-order:normal" />
    <rect
       inkscape:export-ydpi="90"
       inkscape:export-xdpi="90"
       transform="scale(-1,1)"
       y="22.23555"
       x="-275.16672"
       height="295.93112"
       width="296.33334"
       id="rect1119"
       style="display:inline;opacity:1;vector-effect:none;fill:#4e4eff;fill-opacity:0;stroke:none;stroke-width:0.31491619;stroke-linecap:round;stroke-linejoin:round;stroke-miterlimit:4;stroke-dasharray:none;stroke-dashoffset:0;stroke-opacity:1;paint-order:normal" />
  </g>
  <g
     style="display:inline"
     inkscape:label="body office 1 bold gradient"
     id="g1014"
     inkscape:groupmode="layer"
     transform="translate(0,-85.333317)">
    <g
       id="g1114"
       transform="matrix(0.97777133,0,0,0.97777133,-18.567722,24.822584)">
      <path
         inkscape:export-ydpi="90"
         inkscape:export-xdpi="90"
         inkscape:export-filename="E:\Projects\Ascentis\CX\Logo\logopack\logobrand-red-960.png"
         style="display:inline;fill:url(#linearGradient1409);fill-opacity:1;stroke:none;stroke-width:0.26458332;stroke-linecap:butt;stroke-linejoin:miter;stroke-miterlimit:4;stroke-dasharray:none;stroke-opacity:0.94117647"
         d="m 122.3568,116.37324 c -8.90696,21.97904 -1.7588,47.92044 12.27066,56.78737 14.02945,8.86693 45.21328,-2.83732 48.6768,-8.2323 -11.98198,-2.79579 -15.82365,-19.51205 -15.82365,-19.51205 14.6706,13.83017 25.03201,8.72784 27.4484,11.08833 2.41639,2.36049 0.53059,4.74685 0.53059,4.74685 10.85281,4.55118 21.66798,13.85251 20.58773,25.34454 -7.89941,-5.74031 -17.79332,-8.77505 -30.6035,-2.64583 -21.2807,10.18207 -20.45129,37.28962 -36.69808,51.63912 8.40295,-2.74864 14.04665,-18.72444 24.018,-25.23339 9.97136,-6.50896 22.33895,-7.32642 31.60879,-11.44905 11.12641,-4.94832 22.03521,-10.28733 28.0262,-27.4615 5.07548,34.32667 -44.63168,47.84465 -44.63168,47.84465 0,0 22.08074,2.44041 40.8525,-18.32835 -7.98799,33.15014 -51.15654,32.86146 -51.15654,32.86146 0,0 18.13154,6.32518 38.9003,-6.4556 -15.17716,25.56155 -54.90691,17.02058 -54.90691,17.02058 0,0 15.96844,6.62702 35.9384,4.63003 -10.18468,7.98798 -23.15609,9.58864 -38.03798,5.56279 -9.00363,-2.43566 -16.5301,-2.27018 -24.34772,0.91997 -8.38576,3.42199 -12.11016,17.17504 -24.40226,17.15748 -36.255883,-0.4666 -88.855506,-41.37443 -88.911016,-101.6 -3.23e-4,-0.34992 0.0076,-0.69887 0.0046,-1.04686 C 21.125973,103.70686 75.448705,64.285258 126.9238,64.234012 c 37.92893,-0.03776 57.17749,19.763264 60.59871,24.389234 11.72099,15.266704 -4.91233,28.351704 -18.31964,31.756734 -3.70412,0 -6.44031,1.52322 -8.08016,1.72478 -8.00023,0.98334 -12.0469,-2.60541 -16.30319,-0.69008 6.57252,-5.03249 10.65492,-6.89476 14.78499,-7.07453 2.35881,-0.10267 5.01273,2.07938 8.41776,1.76016 4.94658,-0.46374 28.17535,-10.20224 15.28289,-25.882279 -16.51031,-15.680037 -45.28741,-22.852572 -68.02303,-18.04652 19.70002,-0.03154 47.50332,6.211234 64.234,13.891591 16.73068,7.680358 32.07351,20.001438 44.26523,41.735938 0,0 2.4532,3.92158 3.06974,8.2341 0.61654,4.31253 -1.18657,10.78789 -1.18657,10.78789 -2.34096,-7.87414 -7.87657,-8.37908 -8.42225,-11.98329 -0.54568,-3.60421 2.21847,-6.87573 2.21847,-6.87573 -23.75854,-39.511722 -61.70674,-46.274152 -84.21987,-48.466099 26.77661,4.719748 63.76418,20.515029 67.07258,40.898539 0.75462,4.2096 2.70598,3.94366 3.58197,8.12918 0.93318,4.4588 0.50164,8.23552 -3.54867,14.54536 -0.89201,-5.6111 -4.69855,-7.80187 -5.41066,-11.62884 -0.71211,-3.82696 1.54032,-3.40483 0.71068,-10.50595 -0.82964,-16.46496 -37.07527,-34.668944 -61.39351,-35.127868 -9.14058,-0.41058 -12.39197,2.076021 -21.11485,1.944032 -12.82402,0.187021 -22.980025,-9.084793 -38.773635,-1.608534 -29.634897,14.02835 -47.096666,43.84484 -47.260638,84.91651 -0.209944,52.58678 46.993826,92.10298 70.816566,88.9 10.677527,-1.63485 17.247457,-7.44017 15.261537,-19.00637 -1.98592,-11.5662 -44.90683,-17.67326 -43.30923,-57.45284 10.219517,18.62897 21.550956,23.72249 27.852587,24.07258 -7.351903,-4.55118 -30.719875,-27.00394 -19.120393,-55.44175 4.523862,21.55145 14.664794,31.98441 22.197396,38.71085 -7.528999,-9.98478 -22.197396,-39.76918 -5.154057,-59.80184 -0.385898,19.34481 7.926777,41.29316 12.649787,44.44039 0,0 -12.649787,-44.44039 11.0001,-58.04779 z"
         id="path1008"
         inkscape:connector-curvature="0"
         sodipodi:nodetypes="czcczcccczscccccccsscsssccscccccsczczcccsczcccssczcccccccc" />
      <path
         inkscape:export-ydpi="90"
         inkscape:export-xdpi="90"
         inkscape:export-filename="E:\Projects\Ascentis\CX\Logo\logopack\logobrand-red-960.png"
         sodipodi:nodetypes="ccccccc"
         inkscape:connector-curvature="0"
         id="path1010"
         d="m 119.60182,275.08008 c 13.62014,-1.06408 19.50667,-5.23663 22.50297,-8.0258 -2.82322,-1.68574 -4.51813,-2.19808 -8.03156,-1.55087 11.91762,-10.00229 26.38901,0.85128 38.73226,-0.63842 -13.19451,6.81007 -19.2735,2.97808 -23.73171,3.29002 1.98149,0.92618 4.67044,0.96627 5.73452,4.37131 -15.41197,-0.66267 -7.32776,4.89472 -35.20648,2.55376 z"
         style="display:inline;fill:#ae0200;fill-opacity:1;stroke:none;stroke-width:0.26458332;stroke-linecap:butt;stroke-linejoin:miter;stroke-miterlimit:4;stroke-dasharray:none;stroke-opacity:1" />
      <path
         inkscape:export-ydpi="90"
         inkscape:export-xdpi="90"
         inkscape:export-filename="E:\Projects\Ascentis\CX\Logo\logopack\logobrand-red-960.png"
         sodipodi:nodetypes="ccczc"
         inkscape:connector-curvature="0"
         id="path1012"
         d="m 219.98638,162.9442 c 1.81103,-8.3034 8.57304,-6.48311 10.50275,-13.09097 6.59725,20.21739 -6.47076,21.70136 -6.47076,21.70136 2.12815,-2.76659 4.25946,-8.25084 2.23169,-10.20937 -2.02777,-1.95853 -5.19961,-0.31635 -6.26368,1.59898 z"
         style="display:inline;fill:#cb330d;fill-opacity:1;stroke:none;stroke-width:0.26458332;stroke-linecap:butt;stroke-linejoin:miter;stroke-miterlimit:4;stroke-dasharray:none;stroke-opacity:1" />
    </g>
  </g>
</svg>
